<mxfile host="app.diagrams.net" modified="2022-09-15T00:56:48.066Z" agent="5.0 (Windows NT 10.0; Win64; x64) AppleWebKit/537.36 (KHTML, like Gecko) Chrome/104.0.5112.115 Safari/537.36" etag="mhjqv2MICz08gT_fv7Am" version="20.3.0" type="github">
  <diagram id="wddIGuqNlS4ul6MV4sOm" name="Página-1">
    <mxGraphModel dx="1004" dy="555" grid="1" gridSize="10" guides="1" tooltips="1" connect="1" arrows="1" fold="1" page="1" pageScale="1" pageWidth="827" pageHeight="1169" math="0" shadow="0">
      <root>
        <mxCell id="0" />
        <mxCell id="1" parent="0" />
        <mxCell id="J302JGdYQnp2-24rHus9-1" value="Segurado" style="rounded=0;whiteSpace=wrap;html=1;" vertex="1" parent="1">
          <mxGeometry x="195" y="316.25" width="60" height="22.5" as="geometry" />
        </mxCell>
        <mxCell id="J302JGdYQnp2-24rHus9-2" value="Nome" style="ellipse;whiteSpace=wrap;html=1;" vertex="1" parent="1">
          <mxGeometry x="75" y="260" width="50" height="32.5" as="geometry" />
        </mxCell>
        <mxCell id="J302JGdYQnp2-24rHus9-3" value="CPF" style="ellipse;whiteSpace=wrap;html=1;" vertex="1" parent="1">
          <mxGeometry x="75" y="313.75" width="50" height="27.5" as="geometry" />
        </mxCell>
        <mxCell id="J302JGdYQnp2-24rHus9-5" value="Data de nascimento" style="ellipse;whiteSpace=wrap;html=1;" vertex="1" parent="1">
          <mxGeometry x="60" y="362.5" width="80" height="37.5" as="geometry" />
        </mxCell>
        <mxCell id="J302JGdYQnp2-24rHus9-9" value="" style="endArrow=none;html=1;rounded=0;entryX=0;entryY=0.25;entryDx=0;entryDy=0;exitX=1;exitY=0.5;exitDx=0;exitDy=0;" edge="1" parent="1" source="J302JGdYQnp2-24rHus9-2" target="J302JGdYQnp2-24rHus9-1">
          <mxGeometry width="50" height="50" relative="1" as="geometry">
            <mxPoint x="144.9998051533948" y="270.1776695296637" as="sourcePoint" />
            <mxPoint x="258.18" y="372.5" as="targetPoint" />
          </mxGeometry>
        </mxCell>
        <mxCell id="J302JGdYQnp2-24rHus9-10" value="" style="endArrow=none;html=1;rounded=0;entryX=0;entryY=0.5;entryDx=0;entryDy=0;exitX=1;exitY=0.5;exitDx=0;exitDy=0;" edge="1" parent="1" source="J302JGdYQnp2-24rHus9-3" target="J302JGdYQnp2-24rHus9-1">
          <mxGeometry width="50" height="50" relative="1" as="geometry">
            <mxPoint x="144.99980515339485" y="332.4976695296637" as="sourcePoint" />
            <mxPoint x="245" y="389.82" as="targetPoint" />
          </mxGeometry>
        </mxCell>
        <mxCell id="J302JGdYQnp2-24rHus9-11" value="" style="endArrow=none;html=1;rounded=0;entryX=0;entryY=0.75;entryDx=0;entryDy=0;exitX=1;exitY=0.5;exitDx=0;exitDy=0;" edge="1" parent="1" source="J302JGdYQnp2-24rHus9-5" target="J302JGdYQnp2-24rHus9-1">
          <mxGeometry width="50" height="50" relative="1" as="geometry">
            <mxPoint x="155" y="392.5" as="sourcePoint" />
            <mxPoint x="245" y="402.5" as="targetPoint" />
          </mxGeometry>
        </mxCell>
        <mxCell id="J302JGdYQnp2-24rHus9-13" value="Veículo" style="rounded=0;whiteSpace=wrap;html=1;" vertex="1" parent="1">
          <mxGeometry x="573" y="310" width="60" height="32.5" as="geometry" />
        </mxCell>
        <mxCell id="J302JGdYQnp2-24rHus9-14" value="Placa" style="ellipse;whiteSpace=wrap;html=1;" vertex="1" parent="1">
          <mxGeometry x="692.63" y="250" width="50" height="30" as="geometry" />
        </mxCell>
        <mxCell id="J302JGdYQnp2-24rHus9-15" value="Modelo" style="ellipse;whiteSpace=wrap;html=1;" vertex="1" parent="1">
          <mxGeometry x="693" y="290" width="50" height="30" as="geometry" />
        </mxCell>
        <mxCell id="J302JGdYQnp2-24rHus9-16" value="Cor" style="ellipse;whiteSpace=wrap;html=1;" vertex="1" parent="1">
          <mxGeometry x="693" y="330" width="50" height="30" as="geometry" />
        </mxCell>
        <mxCell id="J302JGdYQnp2-24rHus9-17" value="Ano" style="ellipse;whiteSpace=wrap;html=1;" vertex="1" parent="1">
          <mxGeometry x="693" y="370" width="50" height="25" as="geometry" />
        </mxCell>
        <mxCell id="J302JGdYQnp2-24rHus9-24" value="Apólice" style="rounded=0;whiteSpace=wrap;html=1;" vertex="1" parent="1">
          <mxGeometry x="369" y="130" width="61" height="30" as="geometry" />
        </mxCell>
        <mxCell id="J302JGdYQnp2-24rHus9-27" value="Preço" style="ellipse;whiteSpace=wrap;html=1;" vertex="1" parent="1">
          <mxGeometry x="310" y="55" width="50" height="30" as="geometry" />
        </mxCell>
        <mxCell id="J302JGdYQnp2-24rHus9-28" value="Data de início" style="ellipse;whiteSpace=wrap;html=1;" vertex="1" parent="1">
          <mxGeometry x="369" y="50" width="61" height="40" as="geometry" />
        </mxCell>
        <mxCell id="J302JGdYQnp2-24rHus9-29" value="Data de término" style="ellipse;whiteSpace=wrap;html=1;" vertex="1" parent="1">
          <mxGeometry x="440" y="50" width="60" height="40" as="geometry" />
        </mxCell>
        <mxCell id="J302JGdYQnp2-24rHus9-30" value="" style="endArrow=none;html=1;rounded=0;entryX=0.25;entryY=0;entryDx=0;entryDy=0;exitX=1;exitY=1;exitDx=0;exitDy=0;" edge="1" parent="1" source="J302JGdYQnp2-24rHus9-27" target="J302JGdYQnp2-24rHus9-24">
          <mxGeometry width="50" height="50" relative="1" as="geometry">
            <mxPoint x="390" y="320" as="sourcePoint" />
            <mxPoint x="440" y="270" as="targetPoint" />
          </mxGeometry>
        </mxCell>
        <mxCell id="J302JGdYQnp2-24rHus9-31" value="" style="endArrow=none;html=1;rounded=0;entryX=0.5;entryY=0;entryDx=0;entryDy=0;exitX=0.5;exitY=1;exitDx=0;exitDy=0;" edge="1" parent="1" source="J302JGdYQnp2-24rHus9-28" target="J302JGdYQnp2-24rHus9-24">
          <mxGeometry width="50" height="50" relative="1" as="geometry">
            <mxPoint x="390" y="320" as="sourcePoint" />
            <mxPoint x="440" y="270" as="targetPoint" />
          </mxGeometry>
        </mxCell>
        <mxCell id="J302JGdYQnp2-24rHus9-32" value="" style="endArrow=none;html=1;rounded=0;entryX=0.75;entryY=0;entryDx=0;entryDy=0;exitX=0;exitY=1;exitDx=0;exitDy=0;" edge="1" parent="1" source="J302JGdYQnp2-24rHus9-29" target="J302JGdYQnp2-24rHus9-24">
          <mxGeometry width="50" height="50" relative="1" as="geometry">
            <mxPoint x="390" y="320" as="sourcePoint" />
            <mxPoint x="440" y="270" as="targetPoint" />
          </mxGeometry>
        </mxCell>
        <mxCell id="J302JGdYQnp2-24rHus9-33" value="Dependente" style="rounded=0;whiteSpace=wrap;html=1;" vertex="1" parent="1">
          <mxGeometry x="590" y="130" width="81" height="30" as="geometry" />
        </mxCell>
        <mxCell id="J302JGdYQnp2-24rHus9-34" value="Data de nascimento" style="ellipse;whiteSpace=wrap;html=1;" vertex="1" parent="1">
          <mxGeometry x="690" y="125" width="71" height="40" as="geometry" />
        </mxCell>
        <mxCell id="J302JGdYQnp2-24rHus9-35" value="Nome" style="ellipse;whiteSpace=wrap;html=1;" vertex="1" parent="1">
          <mxGeometry x="700.5" y="90" width="50" height="30" as="geometry" />
        </mxCell>
        <mxCell id="J302JGdYQnp2-24rHus9-36" value="Grau de parentesco" style="ellipse;whiteSpace=wrap;html=1;" vertex="1" parent="1">
          <mxGeometry x="691.5" y="170" width="69.5" height="40" as="geometry" />
        </mxCell>
        <mxCell id="J302JGdYQnp2-24rHus9-41" value="É um" style="triangle;whiteSpace=wrap;html=1;rotation=0;" vertex="1" parent="1">
          <mxGeometry x="698" y="405" width="42" height="55" as="geometry" />
        </mxCell>
        <mxCell id="J302JGdYQnp2-24rHus9-43" value="Carro" style="rounded=0;whiteSpace=wrap;html=1;" vertex="1" parent="1">
          <mxGeometry x="757.75" y="400" width="50" height="30" as="geometry" />
        </mxCell>
        <mxCell id="J302JGdYQnp2-24rHus9-44" value="Moto" style="rounded=0;whiteSpace=wrap;html=1;" vertex="1" parent="1">
          <mxGeometry x="757" y="432.5" width="50" height="27.5" as="geometry" />
        </mxCell>
        <mxCell id="J302JGdYQnp2-24rHus9-45" value="" style="endArrow=none;html=1;rounded=0;entryX=0.5;entryY=0;entryDx=0;entryDy=0;exitX=0;exitY=0.5;exitDx=0;exitDy=0;" edge="1" parent="1" source="J302JGdYQnp2-24rHus9-43" target="J302JGdYQnp2-24rHus9-41">
          <mxGeometry width="50" height="50" relative="1" as="geometry">
            <mxPoint x="426.5" y="315" as="sourcePoint" />
            <mxPoint x="476.5" y="265" as="targetPoint" />
          </mxGeometry>
        </mxCell>
        <mxCell id="J302JGdYQnp2-24rHus9-46" value="" style="endArrow=none;html=1;rounded=0;entryX=0.5;entryY=1;entryDx=0;entryDy=0;exitX=0;exitY=0.5;exitDx=0;exitDy=0;" edge="1" parent="1" source="J302JGdYQnp2-24rHus9-44" target="J302JGdYQnp2-24rHus9-41">
          <mxGeometry width="50" height="50" relative="1" as="geometry">
            <mxPoint x="786.5" y="418.75" as="sourcePoint" />
            <mxPoint x="726.5" y="428.75" as="targetPoint" />
          </mxGeometry>
        </mxCell>
        <mxCell id="J302JGdYQnp2-24rHus9-47" value="Possui" style="rhombus;whiteSpace=wrap;html=1;" vertex="1" parent="1">
          <mxGeometry x="280" y="210" width="60" height="50" as="geometry" />
        </mxCell>
        <mxCell id="J302JGdYQnp2-24rHus9-49" value="" style="endArrow=none;html=1;rounded=0;exitX=1;exitY=0;exitDx=0;exitDy=0;entryX=0;entryY=1;entryDx=0;entryDy=0;strokeWidth=3;" edge="1" parent="1" source="J302JGdYQnp2-24rHus9-1" target="J302JGdYQnp2-24rHus9-47">
          <mxGeometry width="50" height="50" relative="1" as="geometry">
            <mxPoint x="390" y="330" as="sourcePoint" />
            <mxPoint x="440" y="280" as="targetPoint" />
          </mxGeometry>
        </mxCell>
        <mxCell id="J302JGdYQnp2-24rHus9-50" value="" style="endArrow=none;html=1;rounded=0;exitX=1;exitY=0;exitDx=0;exitDy=0;entryX=0;entryY=1;entryDx=0;entryDy=0;strokeColor=default;startArrow=classic;startFill=1;" edge="1" parent="1" source="J302JGdYQnp2-24rHus9-47" target="J302JGdYQnp2-24rHus9-24">
          <mxGeometry width="50" height="50" relative="1" as="geometry">
            <mxPoint x="380" y="280" as="sourcePoint" />
            <mxPoint x="440" y="260" as="targetPoint" />
          </mxGeometry>
        </mxCell>
        <mxCell id="J302JGdYQnp2-24rHus9-51" value="Possui" style="rhombus;whiteSpace=wrap;html=1;" vertex="1" parent="1">
          <mxGeometry x="354.5" y="299.38" width="75.5" height="53.75" as="geometry" />
        </mxCell>
        <mxCell id="J302JGdYQnp2-24rHus9-52" value="" style="endArrow=none;html=1;rounded=0;exitX=1;exitY=0.5;exitDx=0;exitDy=0;entryX=0;entryY=0.5;entryDx=0;entryDy=0;strokeWidth=3;" edge="1" parent="1" source="J302JGdYQnp2-24rHus9-1" target="J302JGdYQnp2-24rHus9-51">
          <mxGeometry width="50" height="50" relative="1" as="geometry">
            <mxPoint x="280" y="296.25" as="sourcePoint" />
            <mxPoint x="307.5" y="257.8125" as="targetPoint" />
          </mxGeometry>
        </mxCell>
        <mxCell id="J302JGdYQnp2-24rHus9-58" value="" style="endArrow=none;html=1;rounded=0;entryX=1;entryY=0;entryDx=0;entryDy=0;exitX=0;exitY=0.5;exitDx=0;exitDy=0;" edge="1" parent="1" source="J302JGdYQnp2-24rHus9-14" target="J302JGdYQnp2-24rHus9-13">
          <mxGeometry width="50" height="50" relative="1" as="geometry">
            <mxPoint x="687" y="270" as="sourcePoint" />
            <mxPoint x="517" y="330" as="targetPoint" />
          </mxGeometry>
        </mxCell>
        <mxCell id="J302JGdYQnp2-24rHus9-59" value="" style="endArrow=none;html=1;rounded=0;entryX=0;entryY=0.5;entryDx=0;entryDy=0;exitX=1;exitY=1;exitDx=0;exitDy=0;" edge="1" parent="1" source="J302JGdYQnp2-24rHus9-13" target="J302JGdYQnp2-24rHus9-41">
          <mxGeometry width="50" height="50" relative="1" as="geometry">
            <mxPoint x="467" y="380" as="sourcePoint" />
            <mxPoint x="657" y="480" as="targetPoint" />
          </mxGeometry>
        </mxCell>
        <mxCell id="J302JGdYQnp2-24rHus9-60" value="" style="endArrow=none;html=1;rounded=0;entryX=0;entryY=0.5;entryDx=0;entryDy=0;exitX=1;exitY=0.75;exitDx=0;exitDy=0;" edge="1" parent="1" source="J302JGdYQnp2-24rHus9-13" target="J302JGdYQnp2-24rHus9-17">
          <mxGeometry width="50" height="50" relative="1" as="geometry">
            <mxPoint x="467" y="380" as="sourcePoint" />
            <mxPoint x="517" y="330" as="targetPoint" />
          </mxGeometry>
        </mxCell>
        <mxCell id="J302JGdYQnp2-24rHus9-61" value="" style="endArrow=none;html=1;rounded=0;entryX=0;entryY=0.5;entryDx=0;entryDy=0;exitX=1;exitY=0.5;exitDx=0;exitDy=0;" edge="1" parent="1" source="J302JGdYQnp2-24rHus9-13" target="J302JGdYQnp2-24rHus9-16">
          <mxGeometry width="50" height="50" relative="1" as="geometry">
            <mxPoint x="467" y="380" as="sourcePoint" />
            <mxPoint x="517" y="330" as="targetPoint" />
          </mxGeometry>
        </mxCell>
        <mxCell id="J302JGdYQnp2-24rHus9-62" value="" style="endArrow=none;html=1;rounded=0;entryX=0;entryY=0.5;entryDx=0;entryDy=0;exitX=1;exitY=0.25;exitDx=0;exitDy=0;" edge="1" parent="1" source="J302JGdYQnp2-24rHus9-13" target="J302JGdYQnp2-24rHus9-15">
          <mxGeometry width="50" height="50" relative="1" as="geometry">
            <mxPoint x="467" y="380" as="sourcePoint" />
            <mxPoint x="517" y="330" as="targetPoint" />
          </mxGeometry>
        </mxCell>
        <mxCell id="J302JGdYQnp2-24rHus9-63" value="Possui" style="rhombus;whiteSpace=wrap;html=1;" vertex="1" parent="1">
          <mxGeometry x="480" y="120" width="60" height="50" as="geometry" />
        </mxCell>
        <mxCell id="J302JGdYQnp2-24rHus9-64" value="" style="endArrow=none;html=1;rounded=0;entryX=0;entryY=0.5;entryDx=0;entryDy=0;exitX=1;exitY=0.5;exitDx=0;exitDy=0;" edge="1" parent="1" source="J302JGdYQnp2-24rHus9-24" target="J302JGdYQnp2-24rHus9-63">
          <mxGeometry width="50" height="50" relative="1" as="geometry">
            <mxPoint x="450" y="310" as="sourcePoint" />
            <mxPoint x="500" y="260" as="targetPoint" />
          </mxGeometry>
        </mxCell>
        <mxCell id="J302JGdYQnp2-24rHus9-65" value="" style="endArrow=none;html=1;rounded=0;entryX=0;entryY=0.5;entryDx=0;entryDy=0;exitX=1;exitY=0.5;exitDx=0;exitDy=0;strokeWidth=3;startArrow=classic;startFill=1;" edge="1" parent="1" source="J302JGdYQnp2-24rHus9-63" target="J302JGdYQnp2-24rHus9-33">
          <mxGeometry width="50" height="50" relative="1" as="geometry">
            <mxPoint x="450" y="310" as="sourcePoint" />
            <mxPoint x="500" y="260" as="targetPoint" />
          </mxGeometry>
        </mxCell>
        <mxCell id="J302JGdYQnp2-24rHus9-66" value="" style="endArrow=none;html=1;rounded=0;entryX=0;entryY=0.5;entryDx=0;entryDy=0;exitX=1;exitY=1;exitDx=0;exitDy=0;" edge="1" parent="1" source="J302JGdYQnp2-24rHus9-33" target="J302JGdYQnp2-24rHus9-36">
          <mxGeometry width="50" height="50" relative="1" as="geometry">
            <mxPoint x="450" y="310" as="sourcePoint" />
            <mxPoint x="500" y="260" as="targetPoint" />
          </mxGeometry>
        </mxCell>
        <mxCell id="J302JGdYQnp2-24rHus9-67" value="" style="endArrow=none;html=1;rounded=0;entryX=0;entryY=0.5;entryDx=0;entryDy=0;exitX=1;exitY=0.5;exitDx=0;exitDy=0;" edge="1" parent="1" source="J302JGdYQnp2-24rHus9-33" target="J302JGdYQnp2-24rHus9-34">
          <mxGeometry width="50" height="50" relative="1" as="geometry">
            <mxPoint x="450" y="310" as="sourcePoint" />
            <mxPoint x="500" y="260" as="targetPoint" />
          </mxGeometry>
        </mxCell>
        <mxCell id="J302JGdYQnp2-24rHus9-68" value="" style="endArrow=none;html=1;rounded=0;entryX=0;entryY=0.5;entryDx=0;entryDy=0;exitX=1;exitY=0;exitDx=0;exitDy=0;" edge="1" parent="1" source="J302JGdYQnp2-24rHus9-33" target="J302JGdYQnp2-24rHus9-35">
          <mxGeometry width="50" height="50" relative="1" as="geometry">
            <mxPoint x="450" y="310" as="sourcePoint" />
            <mxPoint x="500" y="260" as="targetPoint" />
          </mxGeometry>
        </mxCell>
        <mxCell id="J302JGdYQnp2-24rHus9-69" value="Vínculo" style="rhombus;whiteSpace=wrap;html=1;" vertex="1" parent="1">
          <mxGeometry x="470" y="220" width="60" height="50" as="geometry" />
        </mxCell>
        <mxCell id="J302JGdYQnp2-24rHus9-70" value="" style="endArrow=none;html=1;rounded=0;entryX=1;entryY=1;entryDx=0;entryDy=0;exitX=0;exitY=0.25;exitDx=0;exitDy=0;" edge="1" parent="1" source="J302JGdYQnp2-24rHus9-13" target="J302JGdYQnp2-24rHus9-69">
          <mxGeometry width="50" height="50" relative="1" as="geometry">
            <mxPoint x="450" y="330" as="sourcePoint" />
            <mxPoint x="500" y="280" as="targetPoint" />
          </mxGeometry>
        </mxCell>
        <mxCell id="J302JGdYQnp2-24rHus9-71" value="" style="endArrow=classic;html=1;rounded=0;entryX=0;entryY=0;entryDx=0;entryDy=0;exitX=1;exitY=1;exitDx=0;exitDy=0;endFill=1;strokeWidth=3;" edge="1" parent="1" source="J302JGdYQnp2-24rHus9-24" target="J302JGdYQnp2-24rHus9-69">
          <mxGeometry width="50" height="50" relative="1" as="geometry">
            <mxPoint x="450" y="310" as="sourcePoint" />
            <mxPoint x="500" y="260" as="targetPoint" />
          </mxGeometry>
        </mxCell>
        <mxCell id="J302JGdYQnp2-24rHus9-74" value="" style="endArrow=classic;html=1;rounded=0;exitX=0;exitY=0.5;exitDx=0;exitDy=0;entryX=1;entryY=0.5;entryDx=0;entryDy=0;" edge="1" parent="1" source="J302JGdYQnp2-24rHus9-13" target="J302JGdYQnp2-24rHus9-51">
          <mxGeometry width="50" height="50" relative="1" as="geometry">
            <mxPoint x="530" y="330" as="sourcePoint" />
            <mxPoint x="580" y="280" as="targetPoint" />
          </mxGeometry>
        </mxCell>
      </root>
    </mxGraphModel>
  </diagram>
</mxfile>
